<svg xmlns="http://www.w3.org/2000/svg" width="290.19" height="150.772" viewBox="0 0 290.19 150.772"><g transform="translate(0.01 -0.438)"><path d="M164.84,58.11c-.1-6.25-3.49-10.2-8.53-10.2-5,0-8.72,4.1-8.77,10.1q-.15,18.6,0,37.19c.05,5.96,3.95,10.1,8.92,9.94,4.95-.16,8.27-3.94,8.38-9.84.11-6.28.03-12.57.03-18.86,0-6.11.08-12.22-.02-18.33Zm-6.21,40.13h-4.86V54.09h4.86Z"></path><path d="M254.72,54.1h6.06v50.18h5.79V54.1h5.1V48.9H254.71v5.2Z"></path><path d="M191.07,54.1h6.06v50.18h5.79V54.1h5.1V48.9H191.06v5.2Z"></path><path d="M290.18,48.82H273.35v5.27c2.02-.03,3.45,0,5.63-.01,0,16.39.02,33.7.02,50.15h5.94c0-16.54-.02-33.86-.02-50.13,2.26,0,3.69,0,5.26-.05V48.83Z"></path><path d="M137.98,90.02c.03,2.81.03,5.55.03,8.23h-5.7V54.1h5.7c0,3.14,0,6.24-.01,9.03h5.6V58.94c-.02-6.84-3.46-11.14-8.81-11.04-5.06.09-8.62,4.4-8.65,10.78-.07,12.2-.1,24.41.02,36.61.06,5.87,4.05,10.02,9,9.84,4.9-.18,8.22-4.01,8.42-9.84.06-1.69.01-3.2.01-5.27Z"></path><path d="M242.95,47.91c-4.96,0-8.68,4.13-8.79,10.1-.12,6.8-.03,13.61-.03,20.41v25.65h6.11V79.82h5.38v24.21h5.99c0-15.78.1-31.13-.05-46.47-.06-5.81-3.75-9.64-8.61-9.64Zm2.67,23.69v2.33h-5.37v-.81h0V54.1h5.37V71.6Z"></path><path d="M220.15,47.77c-4.96,0-8.68,4.13-8.79,10.1-.12,6.8-.03,13.61-.03,20.41v25.65h6.11V79.81h5.38v24.08h5.99c0-15.78.1-31.13-.05-46.47-.06-5.81-3.75-9.64-8.61-9.64Zm2.67,23.69v2.46h-5.37v-.95h0V53.95h5.37v17.5Z"></path><path d="M187.85,63.23c0-2.28.14-4.48-.03-6.66-.39-5.05-4.5-8.89-9.1-8.64-4.58.26-7.89,3.9-8.03,9.01-.1,4.01-.03,8.03-.03,12.05,0,9.95.17,10.09,9.89,10.62.02,0,.19.01.26.01a.757.757,0,0,1,.15.01.723.723,0,0,1,.55.49.844.844,0,0,1,.06.24V98.23h-4.78c.07-3.01.07-5.32.07-8.19h-6.19c0,2.01-.03,3.73,0,5.44.1,5.75,3.54,9.65,8.47,9.66,4.79.02,8.54-4.06,8.69-9.61.1-3.49.03-6.99.03-10.48,0-10.59-.12-10.71-10.14-11.78-.01,0-.1-.02-.13-.02a.761.761,0,0,1-.64-.37.63.63,0,0,1-.1-.29V54.08h4.67V63.2h6.33Z"></path><path d="M67.59,38.45l-2.52-.05,2.51.05a9.185,9.185,0,0,0,3.8,5.94,9.185,9.185,0,0,1-3.8-5.94Z" fill="none"></path><path d="M67.38,10c-.14-.06-.38.05-.83.59-.06.07-.14.16-.24.26.1-.11.18-.2.24-.26C67,10.06,67.24,9.95,67.38,10Z" fill="none"></path><path d="M64.99,37.11c.05-.78.09-1.52.13-2.21-.04.7-.09,1.43-.13,2.21Z" fill="none"></path><path d="M75.74,32.1h0Z" fill="none"></path><path d="M58.44,24.24a12.074,12.074,0,0,1,1.05-4.05,12.074,12.074,0,0,0-1.05,4.05,11.147,11.147,0,0,0,3.62,9.11,11.116,11.116,0,0,1-3.61-9.11Z" fill="none"></path><path d="M61.17,102.77c.74-12.86,2.71-47.2,3.75-64.37h0c-1.03,17.17-3.01,51.52-3.74,64.37Z" fill="none"></path><path d="M88.95,39.92c.57.52.6.75.47.87.13-.12.1-.35-.47-.87-.96-.89-6.58-7.45-12.16-7.81a8.643,8.643,0,0,0-.88-.01c.29,0,.58,0,.88.01,5.57.36,11.19,6.93,12.15,7.81Z" fill="none"></path><path d="M63.63,35.8V34.39h0V35.8c-.05.39-.1.83-.15,1.3h0C63.54,36.63,63.59,36.19,63.63,35.8Z" fill="none"></path><path d="M75.68,45.79h0a15.06,15.06,0,0,0,10.51-3.08A15.06,15.06,0,0,1,75.68,45.79Z" fill="none"></path><path d="M69.08,35.15a5.716,5.716,0,0,0-1.3,1.96h0A5.908,5.908,0,0,1,69.08,35.15Z" fill="none"></path><path d="M67.56,10.23c.11.27.42.95.95,2.01.61,1.24,3.99,5.04,4.13,12.35-.13-7.3-3.52-11.1-4.13-12.34-.52-1.06-.84-1.73-.95-2.01a.423.423,0,0,0-.15-.21.423.423,0,0,1,.15.21Z" fill="none"></path><path d="M57.85,41.89a8.289,8.289,0,0,0,3.07-3.3A8.289,8.289,0,0,1,57.85,41.89Z" fill="none"></path><path d="M51.65,43.34c-3.65-.39-7.27-3.32-9.56-5.5C44.38,40.02,48,42.95,51.65,43.34Z" fill="none"></path><path d="M63.33,38.38c-1.36,11.57-4.77,40.67-7.17,61.47,2.4-20.8,5.82-49.91,7.17-61.47h0Z" fill="none"></path><path d="M68.01,33.54a10.3,10.3,0,0,1-2.35.92A10.424,10.424,0,0,0,68.01,33.54Z" fill="none"></path><path d="M53.09,29.71c7.2.36,8.1,7.34,8.1,7.34l2.21.04-2.21-.05s-.9-6.98-8.1-7.34c-6.62-.33-10.64,3.37-11.79,3.98-.07.04-.13.07-.19.1.07-.04.12-.06.19-.1,1.15-.61,5.17-4.31,11.79-3.98Z" fill="none"></path><path d="M123.11,36.07a.593.593,0,0,0-.06-.04c-.66-.41-1.31-.84-2-1.23q-12.975-7.35-25.96-14.7Q77.975,10.425,60.88.71a1.619,1.619,0,0,0-1.93.1c-1.9,1.28-3.84,2.51-5.75,3.78Q36.685,15.45,20.17,26.32C13.98,30.4,7.65,34.27,1.55,38.52c-.64.44-.82.57-1.4.99h0c-.03.03-.07.06-.1.09a.283.283,0,0,0-.06.16.267.267,0,0,0,.26.27c.14,0,.3,0,.48.01,3.76.16,7.51.36,11.26.53,5.11.24,10.23.51,15.34.71a1.4,1.4,0,0,1,1.55,1.23c1.97,7.57,3.99,15.13,5.98,22.7q2.43,9.255,4.84,18.52c1.42,5.43,2.82,10.87,4.24,16.3.39,1.51.76,3.03,1.17,4.53.17.59.28,1.03.51,1.76.26.8.43,1.29,1.17,1.31,2.01.06,3.76.1,5.63.06h1.91l.9.01h0c.28-2.43.58-5.08.91-7.87,2.4-20.8,5.82-49.9,7.17-61.47H60.98c-.02.06-.05.14-.08.21a8.289,8.289,0,0,1-3.07,3.3,9.553,9.553,0,0,1-5.87,1.49,3.106,3.106,0,0,1-.32-.04c-3.65-.39-7.27-3.32-9.56-5.5-1.14-1.08-1.95-1.98-2.27-2.27-.76-.7-.56-.86-.31-.97.23-.1.77-.37,1.6-.81.07-.04.12-.06.19-.1,1.15-.61,5.17-4.31,11.79-3.98,7.2.36,8.1,7.34,8.1,7.34l2.21.05h.08c.06-.47.1-.9.15-1.3V34.37a5.319,5.319,0,0,1-1.59-1.03,11.118,11.118,0,0,1-3.62-9.11,12.074,12.074,0,0,1,1.05-4.05c1.87-4.34,5.67-8.12,6.83-9.35.1-.11.18-.19.24-.26.45-.54.69-.65.83-.59.01,0,.02.01.03.02a.423.423,0,0,1,.15.21c.11.28.42.95.95,2.01.61,1.24,3.99,5.04,4.13,12.34,0,.3.02.6,0,.91a8.762,8.762,0,0,1-4.63,8.05,10.3,10.3,0,0,1-2.35.92,3.788,3.788,0,0,1-.52.11c0,.1-.01.22-.02.32-.04.7-.08,1.43-.13,2.21h2.79a5.81,5.81,0,0,1,1.3-1.96,9.564,9.564,0,0,1,6.67-3.06h.17c.29,0,.58,0,.88.01,5.57.36,11.2,6.92,12.16,7.81.57.53.6.75.47.87a.624.624,0,0,1-.16.1c-.24.11-.84.41-1.79.91-.27.15-.7.48-1.28.9a15.06,15.06,0,0,1-10.51,3.08h-.04a8.626,8.626,0,0,1-8.05-7.34l-2.51-.05h-.16c-1.03,17.17-3,51.51-3.75,64.37-.17,2.9-.27,4.71-.29,4.98H91.7c1.62,0,1.73-.13,1.73-1.86v-.59q.045-30.96.09-61.92c0-.7-.05-1.89.65-1.99.86-.12.87.98.97,1.88a107.951,107.951,0,0,0,4.59,21.43,121.271,121.271,0,0,0,13.49,28.56c.52.81.68,1.11,1.62,2.51-1.45-4-2.48-7.15-3.57-10.59-.19-.66.06-.73.45-.27,2.06,2.11,4.12,4.2,6.17,6.31-.88-1.71-9.51-17.23-11.55-23.98a114.439,114.439,0,0,1-3.72-14.43,103.608,103.608,0,0,1-1.39-11.16c-.06-1.08.23-1.69,1.34-1.85,1.46-.2,2.92-.51,4.39-.73,4.28-.66,8.57-1.29,12.85-1.95,1.06-.16,2.09-.38,3.14-.57a.18.18,0,0,0,.1-.02.28.28,0,0,0,.16-.25.266.266,0,0,0-.1-.21Z" fill="#5c5e9c"></path><path d="M64.91,38.39l.16.01-.16-.01Z" fill="#34186a"></path><path d="M55.25,107.72h0c.28-2.43.58-5.08.91-7.87C55.84,102.64,55.53,105.29,55.25,107.72Z" fill="#34186a"></path><path d="M67.38,10a.144.144,0,0,1,.03.02C67.4,10.02,67.39,10,67.38,10Z" fill="#34186a"></path><path d="M59.48,20.2c1.87-4.34,5.68-8.12,6.83-9.35-1.16,1.23-4.96,5.01-6.83,9.35Z" fill="#34186a"></path><path d="M75.78,32.1h0Z" fill="#34186a"></path><path d="M75.64,45.78a9.121,9.121,0,0,1-4.25-1.4A9.161,9.161,0,0,0,75.64,45.78Z" fill="#34186a"></path><path d="M87.47,41.8c-.27.15-.7.48-1.28.9a15.461,15.461,0,0,1,1.28-.9c.94-.5,1.54-.8,1.79-.91a.624.624,0,0,0,.16-.1.624.624,0,0,1-.16.1C89.02,41,88.42,41.3,87.47,41.8Z" fill="#34186a"></path><path d="M51.98,43.38a3.106,3.106,0,0,1-.32-.04c.11.01.22.04.32.04a9.553,9.553,0,0,0,5.87-1.49A9.553,9.553,0,0,1,51.98,43.38Z" fill="#34186a"></path><path d="M39.51,34.6c.22-.1.77-.37,1.6-.81-.83.44-1.37.71-1.6.81s-.44.27.31.97c.31.29,1.13,1.18,2.27,2.27-1.14-1.08-1.95-1.98-2.26-2.26-.76-.7-.56-.86-.32-.97Z" fill="#34186a"></path><path d="M63.48,37.09h0Z" fill="#34186a"></path><path d="M61,38.38c-.02.06-.05.14-.08.21.03-.08.06-.15.08-.21h0Z" fill="#34186a"></path><path d="M61.17,102.77c-.17,2.89-.27,4.7-.29,4.98h0C60.9,107.48,61,105.67,61.17,102.77Z" fill="#34186a"></path><path d="M75.74,32.1a9.564,9.564,0,0,0-6.67,3.06A9.564,9.564,0,0,1,75.74,32.1Z" fill="#34186a"></path><path d="M67.78,37.11Z" fill="#34186a"></path><path d="M65.12,34.9c0-.1.01-.22.02-.32.11-.02.29-.06.52-.11-.23.06-.41.09-.52.11C65.14,34.68,65.13,34.8,65.12,34.9Z" fill="#34186a"></path><path d="M62.05,33.35a5.084,5.084,0,0,0,1.59,1.03h0A5.319,5.319,0,0,1,62.05,33.35Z" fill="#34186a"></path><path d="M68.01,33.54a8.727,8.727,0,0,0,4.63-8.05v-.91c0,.3.02.6,0,.91A8.762,8.762,0,0,1,68.01,33.54Z" fill="#34186a"></path><path d="M53.47,125.14a3.981,3.981,0,0,1-4.23,3.5c-3.36,0-4.63-2.55-4.63-5.98,0-3.02,1.46-5.82,4.71-5.82a3.765,3.765,0,0,1,4.1,3.54H51.99a2.563,2.563,0,0,0-2.72-2.33c-2.26,0-3.19,2.19-3.19,4.62s.74,4.78,3.2,4.78a2.681,2.681,0,0,0,2.77-2.3h1.42Z" fill="#5c5e9c"></path><path d="M62.31,124.13c0,2.44-1.07,4.5-3.76,4.5s-3.65-2.14-3.65-4.46,1.21-4.28,3.76-4.28c2.39,0,3.66,1.81,3.66,4.24Zm-6,.03c0,1.94.79,3.32,2.32,3.32s2.26-1.35,2.26-3.34c0-1.83-.76-3.1-2.3-3.1s-2.27,1.28-2.27,3.12Z" fill="#5c5e9c"></path><path d="M64.16,128.48v-12.1h1.38v12.1Z" fill="#5c5e9c"></path><path d="M67.96,128.48v-12.1h1.38v12.1Z" fill="#5c5e9c"></path><path d="M72.6,124.53c-.01,1.69.71,2.96,2.19,2.96a1.908,1.908,0,0,0,1.93-1.39h1.36a3.225,3.225,0,0,1-3.35,2.54c-2.64,0-3.53-2.07-3.53-4.4,0-2.07,1.02-4.35,3.61-4.35s3.41,2.06,3.41,4c0,.05,0,.59-.01.64h-5.6Zm4.25-1.01c-.04-1.43-.62-2.51-2.08-2.51-1.67,0-2.06,1.51-2.14,2.51Z" fill="#5c5e9c"></path><path d="M86.7,127.84c0,2.63-1.05,4.11-3.61,4.11s-3.21-1.32-3.33-2.52h1.36a1.8,1.8,0,0,0,2.02,1.39c1.81,0,2.22-1.18,2.22-3.02v-.69a2.372,2.372,0,0,1-2.47,1.39c-1.98,0-3.26-1.65-3.26-4.27s1.52-4.34,3.46-4.34c1.33,0,2.02.55,2.24,1.2a8.451,8.451,0,0,1,.07-1.03h1.35c-.02.4-.03,1.29-.03,2.44v5.34Zm-5.65-3.62c0,1.95.83,3.08,2.16,3.08,1.61,0,2.18-1,2.18-3.12s-.47-3.09-2.1-3.09c-1.4,0-2.24,1.17-2.24,3.13Z" fill="#5c5e9c"></path><path d="M89.94,124.53c-.01,1.69.71,2.96,2.19,2.96a1.908,1.908,0,0,0,1.93-1.39h1.36a3.225,3.225,0,0,1-3.35,2.54c-2.64,0-3.53-2.07-3.53-4.4,0-2.07,1.02-4.35,3.61-4.35s3.41,2.06,3.41,4c0,.05,0,.59-.01.64h-5.6Zm4.26-1.01c-.04-1.43-.62-2.51-2.08-2.51-1.67,0-2.06,1.51-2.14,2.51Z" fill="#5c5e9c"></path><path d="M108.31,124.13c0,2.44-1.07,4.5-3.76,4.5s-3.65-2.14-3.65-4.46,1.21-4.28,3.76-4.28c2.39,0,3.66,1.81,3.66,4.24Zm-5.99.03c0,1.94.79,3.32,2.32,3.32s2.26-1.35,2.26-3.34c0-1.83-.76-3.1-2.3-3.1s-2.27,1.28-2.27,3.12Z" fill="#5c5e9c"></path><path d="M110.46,128.48v-7.29h-1.3v-1.13h1.3v-1.05c0-1.49.52-2.75,2.28-2.75a2.435,2.435,0,0,1,.79.11v1.16a3.02,3.02,0,0,0-.68-.07c-.75,0-1.03.5-1.03,1.48v1.12h1.57v1.13h-1.57v7.29h-1.37Z" fill="#5c5e9c"></path><path d="M119.36,125.24a2.413,2.413,0,0,0,2.59,2.21c1.36,0,2.28-.7,2.28-1.98s-.6-1.81-2.61-2.43c-2.4-.73-3.32-1.53-3.32-3.17,0-1.82,1.38-3,3.51-3,2.47,0,3.52,1.46,3.64,3.08h-1.41a2.054,2.054,0,0,0-2.27-1.92c-1.34,0-2.01.66-2.01,1.71s.6,1.5,2.44,2.06c2.83.86,3.51,1.94,3.51,3.52,0,1.91-1.32,3.3-3.82,3.3s-3.78-1.28-3.95-3.37h1.42Z" fill="#5c5e9c"></path><path d="M134.05,125.8a3.233,3.233,0,0,1-3.39,2.85c-2.37,0-3.56-1.57-3.56-4.39,0-2.43,1.22-4.36,3.65-4.36a3.086,3.086,0,0,1,3.29,2.94h-1.39a1.89,1.89,0,0,0-1.93-1.81c-1.53,0-2.2,1.34-2.2,3.21,0,2.16.78,3.29,2.18,3.29,1.17,0,1.67-.72,1.96-1.72h1.38Z" fill="#5c5e9c"></path><path d="M135.8,116.38h1.38v1.79H135.8Zm0,3.68h1.38v8.42H135.8Z" fill="#5c5e9c"></path><path d="M140.43,124.53c-.01,1.69.71,2.96,2.19,2.96a1.908,1.908,0,0,0,1.93-1.39h1.36a3.225,3.225,0,0,1-3.35,2.54c-2.64,0-3.53-2.07-3.53-4.4,0-2.07,1.02-4.35,3.61-4.35s3.41,2.06,3.41,4c0,.05,0,.59-.01.64h-5.6Zm4.26-1.01c-.04-1.43-.62-2.51-2.08-2.51-1.67,0-2.06,1.51-2.14,2.51Z" fill="#5c5e9c"></path><path d="M147.87,122.7c0-1.76-.02-2.28-.03-2.64h1.35c.02.16.06.97.05,1.32a2.551,2.551,0,0,1,2.48-1.49c1.56,0,2.68.88,2.68,3.16v5.44h-1.39v-5.22c0-1.22-.41-2.16-1.67-2.16-1.5,0-2.1,1.11-2.1,2.88v4.5h-1.38V122.7Z" fill="#5c5e9c"></path><path d="M163.21,125.8a3.233,3.233,0,0,1-3.39,2.85c-2.37,0-3.56-1.57-3.56-4.39,0-2.43,1.22-4.36,3.65-4.36a3.086,3.086,0,0,1,3.29,2.94h-1.39a1.89,1.89,0,0,0-1.93-1.81c-1.53,0-2.2,1.34-2.2,3.21,0,2.16.78,3.29,2.18,3.29,1.17,0,1.67-.72,1.96-1.72h1.38Z" fill="#5c5e9c"></path><path d="M165.87,124.53c-.01,1.69.71,2.96,2.19,2.96a1.908,1.908,0,0,0,1.93-1.39h1.36a3.225,3.225,0,0,1-3.35,2.54c-2.64,0-3.53-2.07-3.53-4.4,0-2.07,1.02-4.35,3.61-4.35s3.41,2.06,3.41,4c0,.05,0,.59-.01.64h-5.6Zm4.25-1.01c-.04-1.43-.62-2.51-2.08-2.51-1.67,0-2.06,1.51-2.14,2.51Z" fill="#5c5e9c"></path><path d="M172.31,130.44a11.442,11.442,0,0,0,1.05-4.27h1.33a9.139,9.139,0,0,1-1.25,4.27H172.3Z" fill="#5c5e9c"></path><path d="M182.74,118.24h-3.36v-1.23h8.16v1.23h-3.37v10.24h-1.44V118.24Z" fill="#5c5e9c"></path><path d="M188.17,124.53c-.01,1.69.71,2.96,2.19,2.96a1.908,1.908,0,0,0,1.93-1.39h1.36a3.225,3.225,0,0,1-3.35,2.54c-2.64,0-3.53-2.07-3.53-4.4,0-2.07,1.02-4.35,3.61-4.35s3.41,2.06,3.41,4c0,.05,0,.59-.01.64h-5.6Zm4.25-1.01c-.04-1.43-.62-2.51-2.08-2.51-1.67,0-2.06,1.51-2.14,2.51Z" fill="#5c5e9c"></path><path d="M202.07,125.8a3.233,3.233,0,0,1-3.39,2.85c-2.37,0-3.56-1.57-3.56-4.39,0-2.43,1.22-4.36,3.65-4.36a3.086,3.086,0,0,1,3.29,2.94h-1.39a1.89,1.89,0,0,0-1.93-1.81c-1.53,0-2.2,1.34-2.2,3.21,0,2.16.78,3.29,2.18,3.29,1.17,0,1.67-.72,1.96-1.72h1.38Z" fill="#5c5e9c"></path><path d="M205.16,116.38v4.89a2.625,2.625,0,0,1,2.51-1.38c1.27,0,2.65.64,2.65,3.02v5.57h-1.36v-5.33c0-1.29-.51-2.05-1.74-2.05-1.35,0-2.06.9-2.06,2.58v4.81h-1.38v-12.1h1.38Z" fill="#5c5e9c"></path><path d="M212.74,122.7c0-1.76-.02-2.28-.03-2.64h1.35c.02.16.06.97.05,1.32a2.551,2.551,0,0,1,2.48-1.49c1.56,0,2.68.88,2.68,3.16v5.44h-1.39v-5.22c0-1.22-.41-2.16-1.67-2.16-1.5,0-2.1,1.11-2.1,2.88v4.5h-1.38V122.7Z" fill="#5c5e9c"></path><path d="M228.53,124.13c0,2.44-1.07,4.5-3.76,4.5s-3.65-2.14-3.65-4.46,1.21-4.28,3.76-4.28c2.39,0,3.66,1.81,3.66,4.24Zm-5.99.03c0,1.94.79,3.32,2.32,3.32s2.26-1.35,2.26-3.34c0-1.83-.76-3.1-2.3-3.1s-2.27,1.28-2.27,3.12Z" fill="#5c5e9c"></path><path d="M230.38,128.48v-12.1h1.38v12.1Z" fill="#5c5e9c"></path><path d="M241.03,124.13c0,2.44-1.07,4.5-3.76,4.5s-3.65-2.14-3.65-4.46,1.21-4.28,3.76-4.28c2.39,0,3.66,1.81,3.66,4.24Zm-6,.03c0,1.94.79,3.32,2.32,3.32s2.26-1.35,2.26-3.34c0-1.83-.76-3.1-2.3-3.1s-2.27,1.28-2.27,3.12Z" fill="#5c5e9c"></path><path d="M249.45,127.84c0,2.63-1.05,4.11-3.61,4.11s-3.21-1.32-3.33-2.52h1.36a1.8,1.8,0,0,0,2.02,1.39c1.81,0,2.22-1.18,2.22-3.02v-.69a2.372,2.372,0,0,1-2.47,1.39c-1.98,0-3.26-1.65-3.26-4.27s1.52-4.34,3.46-4.34c1.33,0,2.02.55,2.24,1.2a8.447,8.447,0,0,1,.07-1.03h1.35c-.02.4-.03,1.29-.03,2.44v5.34Zm-5.65-3.62c0,1.95.83,3.08,2.16,3.08,1.61,0,2.18-1,2.18-3.12s-.47-3.09-2.1-3.09c-1.4,0-2.24,1.17-2.24,3.13Z" fill="#5c5e9c"></path><path d="M252.31,120.06c1.31,4.08,1.99,6.13,2.2,7.14h.02c.25-.92,1-3.5,2.15-7.14h1.42l-2.94,8.8c-.86,2.56-1.56,3.1-3.04,3.1a4.683,4.683,0,0,1-.73-.06v-1.18a5.549,5.549,0,0,0,.72.05c1.01,0,1.33-.81,1.73-2.02l-3.01-8.68h1.48Z" fill="#5c5e9c"></path><path d="M270.08,126.61a13.061,13.061,0,0,0,.13,1.87h-1.25a6.665,6.665,0,0,1-.12-1.3,2.478,2.478,0,0,1-2.55,1.45,2.427,2.427,0,0,1-2.69-2.56c0-1.27.82-2.67,3.84-2.67h1.29v-.82c0-.8-.23-1.62-1.66-1.62a1.54,1.54,0,0,0-1.79,1.49h-1.35c.13-1.41.94-2.56,3.18-2.56,1.76,0,2.97.71,2.97,2.63v4.09Zm-1.32-2.21h-1.33c-2.04,0-2.42.83-2.42,1.6a1.423,1.423,0,0,0,1.56,1.5c1.65,0,2.2-1.12,2.2-2.93v-.17Z" fill="#5c5e9c"></path><path d="M272.51,122.7c0-1.76-.02-2.28-.03-2.64h1.35c.02.16.06.97.05,1.32a2.551,2.551,0,0,1,2.48-1.49c1.56,0,2.68.88,2.68,3.16v5.44h-1.39v-5.22c0-1.22-.41-2.16-1.67-2.16-1.5,0-2.1,1.11-2.1,2.88v4.5H272.5V122.7Z" fill="#5c5e9c"></path><path d="M288.02,116.38v9.9c0,.81,0,1.68.03,2.2H286.7c-.02-.22-.05-.75-.05-1.24a2.329,2.329,0,0,1-2.51,1.4c-2.18,0-3.26-1.84-3.26-4.35s1.26-4.4,3.54-4.4c1.36,0,2,.54,2.22,1.01v-4.52h1.38Zm-5.72,7.85c0,2.05.88,3.23,2.21,3.23,1.81,0,2.19-1.38,2.19-3.35,0-2.34-.67-3.02-2.1-3.02s-2.3,1.14-2.3,3.15Z" fill="#5c5e9c"></path><path d="M46.59,144.25l-1.12,3.49H44.05c.8-2.39,2.83-8.76,3.73-11.47h1.8l3.9,11.47H51.95l-1.15-3.49H46.59Zm3.87-1.23c-.97-2.95-1.59-4.66-1.81-5.58h-.03c-.32,1.35-.91,3.12-1.71,5.58h3.54Z" fill="#5c5e9c"></path><path d="M56.37,146.73v4.35H55V141.8c0-1.15,0-1.96-.03-2.48h1.35c.02.29.04.89.04,1.36a2.7,2.7,0,0,1,2.62-1.52c1.83,0,3.14,1.45,3.14,4.24s-1.51,4.49-3.48,4.49a2.373,2.373,0,0,1-2.28-1.15Zm4.35-3.29c0-2.03-.82-3.1-2.17-3.1-1.73,0-2.25,1.19-2.25,3.22,0,1.86.36,3.15,2.16,3.15,1.41,0,2.25-1.18,2.25-3.27Z" fill="#5c5e9c"></path><path d="M65.36,146.73v4.35H63.99V141.8c0-1.15,0-1.96-.03-2.48h1.35c.02.29.04.89.04,1.36a2.7,2.7,0,0,1,2.62-1.52c1.83,0,3.14,1.45,3.14,4.24s-1.51,4.49-3.48,4.49a2.373,2.373,0,0,1-2.28-1.15Zm4.35-3.29c0-2.03-.82-3.1-2.17-3.1-1.73,0-2.25,1.19-2.25,3.22,0,1.86.36,3.15,2.16,3.15,1.41,0,2.25-1.18,2.25-3.27Z" fill="#5c5e9c"></path><path d="M72.98,147.74v-12.1h1.38v12.1Z" fill="#5c5e9c"></path><path d="M76.78,135.64h1.38v1.79H76.78Zm0,3.68h1.38v8.42H76.78Z" fill="#5c5e9c"></path><path d="M81.42,143.79c-.01,1.69.71,2.96,2.19,2.96a1.908,1.908,0,0,0,1.93-1.39H86.9a3.225,3.225,0,0,1-3.35,2.54c-2.64,0-3.53-2.07-3.53-4.4,0-2.07,1.02-4.35,3.61-4.35s3.41,2.06,3.41,4c0,.05,0,.59-.01.64h-5.6Zm4.25-1.01c-.04-1.43-.62-2.51-2.08-2.51-1.67,0-2.06,1.51-2.14,2.51Z" fill="#5c5e9c"></path><path d="M95.5,135.64v9.9c0,.81,0,1.68.03,2.2H94.18c-.02-.22-.05-.75-.05-1.24a2.329,2.329,0,0,1-2.51,1.4c-2.18,0-3.26-1.84-3.26-4.35s1.26-4.4,3.54-4.4c1.36,0,2,.54,2.22,1.01v-4.52H95.5Zm-5.72,7.84c0,2.05.88,3.23,2.21,3.23,1.81,0,2.19-1.38,2.19-3.35,0-2.34-.67-3.02-2.1-3.02s-2.3,1.14-2.3,3.15Z" fill="#5c5e9c"></path><path d="M103.69,144.25l-1.12,3.49h-1.42c.8-2.39,2.83-8.76,3.73-11.47h1.8l3.9,11.47h-1.53l-1.15-3.49h-4.21Zm3.87-1.23c-.97-2.95-1.59-4.66-1.81-5.58h-.03c-.32,1.35-.91,3.12-1.71,5.58h3.54Z" fill="#5c5e9c"></path><path d="M112.1,142.18c0-1.34-.01-2.44-.03-2.86h1.35c.03.4.03.94.03,1.71a2.812,2.812,0,0,1,2.73-1.86v1.43c-1.9.07-2.7,1.18-2.7,3v4.14H112.1v-5.57Z" fill="#5c5e9c"></path><path d="M117.04,139.32h1.35v-2.45h1.37v2.45h1.7v1.13h-1.7v5.27c0,.7.18,1,.89,1a3.2,3.2,0,0,0,.65-.06v1.03a3.612,3.612,0,0,1-1.1.14c-1.22,0-1.82-.47-1.82-1.87v-5.53h-1.35V139.3Z" fill="#5c5e9c"></path><path d="M123.61,145.31a1.755,1.755,0,0,0,1.89,1.51c1.16,0,1.62-.62,1.62-1.34,0-.76-.54-1.16-1.97-1.55-2.05-.56-2.6-1.31-2.6-2.44s.76-2.35,2.83-2.35,2.82,1.13,2.94,2.42h-1.35a1.5,1.5,0,0,0-1.65-1.35c-.95,0-1.39.46-1.39,1.16,0,.63.32.97,1.74,1.34,2.15.57,2.83,1.3,2.83,2.64,0,1.56-1.24,2.53-3.05,2.53s-3.05-.82-3.21-2.58h1.36Z" fill="#5c5e9c"></path><path d="M141.24,143.39c0,2.44-1.07,4.5-3.76,4.5s-3.65-2.14-3.65-4.46,1.21-4.28,3.76-4.28c2.39,0,3.66,1.81,3.66,4.24Zm-6,.03c0,1.94.79,3.32,2.32,3.32s2.26-1.35,2.26-3.34c0-1.83-.76-3.1-2.3-3.1s-2.27,1.28-2.27,3.12Z" fill="#5c5e9c"></path><path d="M143.39,147.74v-7.29h-1.3v-1.13h1.3v-1.05c0-1.49.52-2.75,2.28-2.75a2.435,2.435,0,0,1,.79.11v1.16a3.02,3.02,0,0,0-.68-.07c-.75,0-1.03.5-1.03,1.48v1.12h1.57v1.13h-1.57v7.29h-1.37Z" fill="#5c5e9c"></path><path d="M153.75,137.5h-3.36v-1.23h8.16v1.23h-3.37v10.24h-1.44V137.5Z" fill="#5c5e9c"></path><path d="M158.51,142.18c0-1.34-.01-2.44-.03-2.86h1.35c.03.4.03.94.03,1.71a2.812,2.812,0,0,1,2.73-1.86v1.43c-1.89.07-2.7,1.18-2.7,3v4.14h-1.38v-5.57Z" fill="#5c5e9c"></path><path d="M164.01,135.64h1.38v1.79h-1.38Zm0,3.68h1.38v8.42h-1.38Z" fill="#5c5e9c"></path><path d="M167.81,141.95c0-1.76-.02-2.28-.03-2.64h1.35c.02.16.06.97.05,1.32a2.551,2.551,0,0,1,2.48-1.49c1.56,0,2.68.88,2.68,3.16v5.44h-1.39v-5.22c0-1.22-.41-2.16-1.67-2.16-1.5,0-2.1,1.11-2.1,2.88v4.5H167.8v-5.79Z" fill="#5c5e9c"></path><path d="M176.76,135.64h1.38v1.79h-1.38Zm0,3.68h1.38v8.42h-1.38Z" fill="#5c5e9c"></path><path d="M187.12,135.64v9.9c0,.81,0,1.68.03,2.2H185.8c-.02-.22-.05-.75-.05-1.24a2.329,2.329,0,0,1-2.51,1.4c-2.18,0-3.26-1.84-3.26-4.35s1.26-4.4,3.54-4.4c1.36,0,2,.54,2.22,1.01v-4.52h1.38Zm-5.72,7.84c0,2.05.88,3.23,2.21,3.23,1.81,0,2.19-1.38,2.19-3.35,0-2.34-.67-3.02-2.1-3.02s-2.3,1.14-2.3,3.15Z" fill="#5c5e9c"></path><path d="M195.45,145.87a13.063,13.063,0,0,0,.13,1.87h-1.25a6.665,6.665,0,0,1-.12-1.3,2.478,2.478,0,0,1-2.55,1.45,2.427,2.427,0,0,1-2.69-2.56c0-1.27.82-2.67,3.84-2.67h1.29v-.82c0-.8-.23-1.62-1.65-1.62a1.54,1.54,0,0,0-1.79,1.49h-1.35c.13-1.41.94-2.56,3.18-2.56,1.76,0,2.97.71,2.97,2.63v4.09Zm-1.32-2.21H192.8c-2.04,0-2.42.83-2.42,1.6a1.423,1.423,0,0,0,1.56,1.5c1.65,0,2.2-1.12,2.2-2.93v-.17Z" fill="#5c5e9c"></path><path d="M204.43,135.64v9.9c0,.81,0,1.68.03,2.2h-1.35c-.02-.22-.05-.75-.05-1.24a2.329,2.329,0,0,1-2.51,1.4c-2.18,0-3.26-1.84-3.26-4.35s1.26-4.4,3.54-4.4c1.36,0,2,.54,2.22,1.01v-4.52h1.38Zm-5.71,7.84c0,2.05.88,3.23,2.21,3.23,1.81,0,2.19-1.38,2.19-3.35,0-2.34-.67-3.02-2.1-3.02s-2.3,1.14-2.3,3.15Z" fill="#5c5e9c"></path><path d="M216.98,145.87a13.063,13.063,0,0,0,.13,1.87h-1.25a6.665,6.665,0,0,1-.12-1.3,2.478,2.478,0,0,1-2.55,1.45,2.427,2.427,0,0,1-2.69-2.56c0-1.27.82-2.67,3.84-2.67h1.29v-.82c0-.8-.23-1.62-1.65-1.62a1.54,1.54,0,0,0-1.79,1.49h-1.35c.13-1.41.94-2.56,3.18-2.56,1.76,0,2.97.71,2.97,2.63v4.09Zm-1.31-2.21h-1.33c-2.04,0-2.42.83-2.42,1.6a1.423,1.423,0,0,0,1.56,1.5c1.65,0,2.2-1.12,2.2-2.93v-.17Z" fill="#5c5e9c"></path><path d="M219.41,141.95c0-1.76-.02-2.28-.03-2.64h1.35c.02.16.06.97.05,1.32a2.551,2.551,0,0,1,2.48-1.49c1.56,0,2.68.88,2.68,3.16v5.44h-1.39v-5.22c0-1.22-.41-2.16-1.67-2.16-1.5,0-2.1,1.11-2.1,2.88v4.5H219.4v-5.79Z" fill="#5c5e9c"></path><path d="M234.92,135.64v9.9c0,.81,0,1.68.03,2.2H233.6c-.02-.22-.05-.75-.05-1.24a2.329,2.329,0,0,1-2.51,1.4c-2.18,0-3.26-1.84-3.26-4.35s1.26-4.4,3.54-4.4c1.36,0,2,.54,2.22,1.01v-4.52h1.38Zm-5.72,7.84c0,2.05.88,3.23,2.21,3.23,1.81,0,2.19-1.38,2.19-3.35,0-2.34-.67-3.02-2.1-3.02s-2.3,1.14-2.3,3.15Z" fill="#5c5e9c"></path><path d="M243.83,137.5h-3.36v-1.23h8.16v1.23h-3.37v10.24h-1.44V137.5Z" fill="#5c5e9c"></path><path d="M255.27,143.39c0,2.44-1.07,4.5-3.76,4.5s-3.65-2.14-3.65-4.46,1.21-4.28,3.76-4.28c2.39,0,3.66,1.81,3.66,4.24Zm-6,.03c0,1.94.79,3.32,2.32,3.32s2.26-1.35,2.26-3.34c0-1.83-.76-3.1-2.3-3.1s-2.27,1.28-2.27,3.12Z" fill="#5c5e9c"></path><path d="M257.1,135.64h1.38v4.85a2.68,2.68,0,0,1,2.52-1.34c2.04,0,3.23,1.68,3.23,4.12,0,2.56-1.08,4.62-3.49,4.62a2.285,2.285,0,0,1-2.28-1.22,9.727,9.727,0,0,1-.06,1.07h-1.34c.02-.47.03-1.35.03-2.39v-9.71Zm5.72,7.68c0-1.78-.71-2.98-2.16-2.98-1.67,0-2.26,1.08-2.26,3.08s.47,3.28,2.22,3.28C262.13,146.7,262.82,145.3,262.82,143.32Z" fill="#5c5e9c"></path><path d="M271.96,145.87a13.061,13.061,0,0,0,.13,1.87h-1.25a6.665,6.665,0,0,1-.12-1.3,2.478,2.478,0,0,1-2.55,1.45,2.427,2.427,0,0,1-2.69-2.56c0-1.27.82-2.67,3.84-2.67h1.29v-.82c0-.8-.23-1.62-1.66-1.62a1.54,1.54,0,0,0-1.79,1.49h-1.35c.13-1.41.94-2.56,3.18-2.56,1.76,0,2.97.71,2.97,2.63Zm-1.32-2.21h-1.33c-2.04,0-2.42.83-2.42,1.6a1.423,1.423,0,0,0,1.56,1.5c1.65,0,2.2-1.12,2.2-2.93v-.17Z" fill="#5c5e9c"></path><path d="M280.9,147.1c0,2.63-1.05,4.11-3.61,4.11s-3.21-1.32-3.33-2.52h1.36a1.8,1.8,0,0,0,2.02,1.39c1.81,0,2.22-1.18,2.22-3.02v-.69a2.372,2.372,0,0,1-2.47,1.39c-1.98,0-3.26-1.65-3.26-4.27s1.52-4.34,3.46-4.34c1.33,0,2.02.55,2.24,1.2a8.45,8.45,0,0,1,.07-1.03h1.35c-.02.4-.03,1.29-.03,2.44v5.34Zm-5.65-3.62c0,1.95.83,3.08,2.16,3.08,1.61,0,2.18-1,2.18-3.12s-.47-3.09-2.1-3.09c-1.4,0-2.24,1.17-2.24,3.13Z" fill="#5c5e9c"></path><path d="M290.16,143.39c0,2.44-1.07,4.5-3.76,4.5s-3.65-2.14-3.65-4.46,1.21-4.28,3.76-4.28c2.39,0,3.66,1.81,3.66,4.24Zm-6,.03c0,1.94.79,3.32,2.32,3.32s2.26-1.35,2.26-3.34c0-1.83-.76-3.1-2.3-3.1s-2.27,1.28-2.27,3.12Z" fill="#5c5e9c"></path></g></svg>