<?xml version="1.0" encoding="UTF-8"?>
<svg xmlns="http://www.w3.org/2000/svg" width="161.1" height="83.712" viewBox="0 0 161.1 83.712">
  <g transform="translate(-2.24 -0.008)">
    <path d="M93.75,32.02c-.06-3.47-1.94-5.67-4.74-5.66-2.78,0-4.84,2.28-4.87,5.61q-.09,10.32,0,20.65c.03,3.31,2.19,5.61,4.95,5.52s4.59-2.19,4.65-5.46c.06-3.49.01-6.98.01-10.47,0-3.39.04-6.79-.01-10.18ZM90.3,54.31H87.6V29.8h2.7Z" fill="#fff"></path>
    <path d="M143.66,29.8h3.37V57.66h3.22V29.8h2.83V26.91h-9.42Z" fill="#fff"></path>
    <path d="M108.31,29.8h3.37V57.66h3.22V29.8h2.83V26.91h-9.42V29.8Z" fill="#fff"></path>
    <path d="M163.34,26.87h-9.35V29.8c1.12-.02,1.92,0,3.13,0,0,9.1.01,18.72.01,27.84h3.3c0-9.19-.01-18.8-.01-27.84,1.26,0,2.05,0,2.92-.03v-2.9Z" fill="#fff"></path>
    <path d="M78.83,49.74c.01,1.56.01,3.08.01,4.57H75.67V29.8h3.17v5.01h3.11V32.49c-.01-3.8-1.92-6.18-4.89-6.13-2.81.05-4.79,2.44-4.8,5.99-.04,6.78-.06,13.55.01,20.33.03,3.26,2.25,5.56,5,5.47,2.72-.1,4.56-2.23,4.68-5.47.03-.94,0-1.78,0-2.93H78.84Z" fill="#fff"></path>
    <path d="M137.12,26.36c-2.75,0-4.82,2.29-4.88,5.61-.07,3.78-.02,7.56-.02,11.33V57.54h3.39V44.07h2.99V57.51h3.32c0-8.76.05-17.29-.03-25.8-.03-3.23-2.08-5.35-4.78-5.36Zm1.48,13.15V40.8h-2.98v-.45h0V29.79h2.98Z" fill="#fff"></path>
    <path d="M124.46,26.28c-2.75,0-4.82,2.29-4.88,5.61-.07,3.78-.02,7.56-.02,11.33V57.46h3.39V44.07h2.99V57.44h3.32c0-8.76.05-17.29-.03-25.8-.03-3.23-2.08-5.35-4.78-5.36Zm1.48,13.16v1.37h-2.98v-.53h0V29.72h2.98Z" fill="#fff"></path>
    <path d="M106.52,34.87c0-1.27.08-2.49-.02-3.7a5.014,5.014,0,0,0-5.05-4.8c-2.54.14-4.38,2.16-4.46,5.01-.06,2.23-.02,4.46-.02,6.69,0,5.52.09,5.6,5.49,5.9h.22a.423.423,0,0,1,.31.27.277.277,0,0,1,.03.13v9.92h-2.65c.04-1.67.04-2.96.04-4.55H96.97c0,1.11-.02,2.07,0,3.02.06,3.19,1.96,5.36,4.71,5.37,2.66.01,4.74-2.26,4.83-5.33.05-1.94.02-3.88.02-5.82,0-5.88-.07-5.95-5.63-6.54h-.07a.392.392,0,0,1-.35-.21.442.442,0,0,1-.06-.16V29.79h2.59v5.07h3.51Z" fill="#fff"></path>
    <path d="M39.75,21.11l-1.4-.03,1.4.03a5.1,5.1,0,0,0,2.11,3.3A5.079,5.079,0,0,1,39.75,21.11Z" fill="#fff"></path>
    <path d="M39.63,5.31c-.08-.03-.21.03-.46.33-.03.04-.08.09-.13.15a1.35,1.35,0,0,0,.13-.15C39.42,5.34,39.55,5.28,39.63,5.31Z" fill="#fff"></path>
    <path d="M38.3,20.36c.03-.43.05-.84.07-1.23-.02.39-.05.79-.07,1.23Z" fill="#fff"></path>
    <path d="M44.27,17.58h0Z" fill="#fff"></path>
    <path d="M34.66,13.22a6.989,6.989,0,0,1,.58-2.25,6.741,6.741,0,0,0-.58,2.25,6.187,6.187,0,0,0,2.01,5.06,6.172,6.172,0,0,1-2.01-5.06Z" fill="#fff"></path>
    <path d="M36.18,56.82c.41-7.14,1.51-26.21,2.08-35.75h0C37.69,30.61,36.59,49.68,36.18,56.82Z" fill="#fff"></path>
    <path d="M51.61,21.92c.32.29.33.41.26.48.07-.07.05-.19-.26-.48-.53-.49-3.65-4.14-6.75-4.34a4,4,0,0,0-.49,0h.49C47.95,17.78,51.07,21.43,51.61,21.92Z" fill="#fff"></path>
    <path d="M37.55,19.63v-.78h0v.78c-.03.22-.05.46-.08.72h0C37.5,20.09,37.53,19.85,37.55,19.63Z" fill="#fff"></path>
    <path d="M44.24,25.18h0a8.419,8.419,0,0,0,5.84-1.71A8.419,8.419,0,0,1,44.24,25.18Z" fill="#fff"></path>
    <path d="M40.57,19.28a3.274,3.274,0,0,0-.72,1.09h0A3.274,3.274,0,0,1,40.57,19.28Z" fill="#fff"></path>
    <path d="M39.73,5.44c.06.15.24.53.53,1.12a12.1,12.1,0,0,1,2.29,6.85,12.028,12.028,0,0,0-2.29-6.85c-.29-.59-.46-.96-.53-1.12a.36.36,0,0,0-.08-.12A.214.214,0,0,1,39.73,5.44Z" fill="#fff"></path>
    <path d="M34.34,23.02a4.54,4.54,0,0,0,1.7-1.83A4.616,4.616,0,0,1,34.34,23.02Z" fill="#fff"></path>
    <path d="M30.9,23.82c-2.03-.22-4.04-1.85-5.31-3.05C26.86,21.98,28.87,23.61,30.9,23.82Z" fill="#fff"></path>
    <path d="M37.38,21.07c-.75,6.42-2.65,22.58-3.98,34.13,1.34-11.55,3.23-27.71,3.98-34.13Z" fill="#fff"></path>
    <path d="M39.98,18.38a5.419,5.419,0,0,1-1.31.51A5.877,5.877,0,0,0,39.98,18.38Z" fill="#fff"></path>
    <path d="M31.7,16.25a4.756,4.756,0,0,1,4.5,4.08l1.23.02-1.23-.03a4.742,4.742,0,0,0-4.5-4.07,10.285,10.285,0,0,0-6.55,2.21c-.04.02-.07.04-.11.06.04-.02.07-.04.11-.06A10.258,10.258,0,0,1,31.7,16.25Z" fill="#fff"></path>
    <path d="M70.58,19.79s-.02-.02-.03-.02c-.37-.23-.73-.47-1.11-.68q-7.2-4.08-14.42-8.16Q45.51,5.56,36.03.16a.884.884,0,0,0-1.07.06c-1.05.71-2.13,1.4-3.19,2.1Q22.605,8.35,13.43,14.39c-3.44,2.26-6.95,4.42-10.34,6.77-.35.25-.46.32-.77.55h0c-.02.02-.04.03-.05.05a.14.14,0,0,0-.03.09.154.154,0,0,0,.15.15h.26c2.09.09,4.17.2,6.25.29,2.84.13,5.68.28,8.52.4a.773.773,0,0,1,.86.68c1.09,4.21,2.22,8.4,3.32,12.6q1.35,5.13,2.69,10.28,1.185,4.53,2.35,9.05c.22.84.42,1.68.65,2.51.09.33.16.57.28.98.14.44.24.72.65.73,1.12.03,2.09.06,3.13.04h1.56c.15-1.35.32-2.82.5-4.37,1.33-11.55,3.23-27.71,3.98-34.13h-1.3s-.03.08-.04.12a4.616,4.616,0,0,1-1.7,1.83,5.4,5.4,0,0,1-3.26.83c-.06,0-.12-.02-.18-.02-2.03-.22-4.04-1.85-5.31-3.05-.63-.6-1.08-1.1-1.26-1.26-.42-.39-.31-.48-.17-.54s.43-.21.89-.45c.04-.02.07-.04.11-.06a10.258,10.258,0,0,1,6.55-2.21,4.75,4.75,0,0,1,4.5,4.07l1.23.03h.05c.03-.26.06-.5.08-.72v-.78a3.021,3.021,0,0,1-.88-.57,6.172,6.172,0,0,1-2.01-5.06,6.989,6.989,0,0,1,.58-2.25,19.169,19.169,0,0,1,3.79-5.19,1.35,1.35,0,0,0,.13-.15c.25-.3.38-.36.46-.33a.031.031,0,0,1,.02.01.214.214,0,0,1,.08.12c.06.15.23.53.53,1.12a12.1,12.1,0,0,1,2.29,6.85v.51A4.862,4.862,0,0,1,40,18.38a5.419,5.419,0,0,1-1.31.51c-.13.03-.23.05-.29.06a1.087,1.087,0,0,1-.01.18c-.02.39-.05.79-.07,1.23h1.55a3.274,3.274,0,0,1,.72-1.09,5.3,5.3,0,0,1,3.7-1.7h.58c3.09.2,6.22,3.84,6.75,4.34.32.29.33.42.26.48a.7.7,0,0,1-.09.06q-.21.09-.99.51c-.15.08-.39.27-.71.5a8.4,8.4,0,0,1-5.84,1.71h-.02a4.987,4.987,0,0,1-2.36-.78,5.079,5.079,0,0,1-2.11-3.3l-1.4-.03h-.09c-.57,9.53-1.67,28.6-2.08,35.74-.09,1.61-.15,2.62-.16,2.77H53.15c.9,0,.96-.07.96-1.03v-.33q.03-17.19.05-34.38c0-.39-.03-1.05.36-1.11.48-.07.48.54.54,1.05a59.658,59.658,0,0,0,2.55,11.9A67.16,67.16,0,0,0,65.1,51.53c.29.45.38.61.9,1.39-.81-2.22-1.38-3.97-1.98-5.88-.11-.36.03-.4.25-.15,1.14,1.17,2.29,2.33,3.43,3.5-.49-.95-5.28-9.57-6.42-13.32a65.4,65.4,0,0,1-2.07-8.01,55.622,55.622,0,0,1-.77-6.19c-.03-.6.13-.94.74-1.03.81-.11,1.62-.28,2.44-.4l7.14-1.08c.59-.09,1.16-.21,1.74-.32a.127.127,0,0,0,.06-.01.157.157,0,0,0,.09-.14.129.129,0,0,0-.05-.11Z" fill="#fff"></path>
    <path d="M38.26,21.07l.09.01-.09-.01Z" fill="#fff"></path>
    <path d="M32.89,59.57h0c.15-1.35.32-2.82.5-4.37C33.21,56.75,33.04,58.22,32.89,59.57Z" fill="#fff"></path>
    <path d="M39.63,5.31a.031.031,0,0,1,.02.01A.031.031,0,0,1,39.63,5.31Z" fill="#fff"></path>
    <path d="M35.25,10.97a19.169,19.169,0,0,1,3.79-5.19A19.337,19.337,0,0,0,35.25,10.97Z" fill="#fff"></path>
    <path d="M44.3,17.58h0Z" fill="#fff"></path>
    <path d="M44.22,25.18a4.987,4.987,0,0,1-2.36-.78A5.14,5.14,0,0,0,44.22,25.18Z" fill="#fff"></path>
    <path d="M50.79,22.97c-.15.08-.39.27-.71.5.32-.23.56-.42.71-.5.52-.28.86-.45.99-.51.03-.02.07-.03.09-.06a.262.262,0,0,1-.09.05c-.13.06-.47.23-.99.51Z" fill="#fff"></path>
    <path d="M31.08,23.85c-.06,0-.12-.02-.18-.02.06,0,.12.02.18.02a5.262,5.262,0,0,0,3.26-.83A5.4,5.4,0,0,1,31.08,23.85Z" fill="#fff"></path>
    <path d="M24.16,18.97c.12-.06.43-.21.89-.45-.46.24-.76.39-.89.45s-.25.15.17.54c.17.16.63.66,1.26,1.26-.63-.6-1.08-1.1-1.26-1.26-.42-.39-.31-.48-.18-.54Z" fill="#fff"></path>
    <path d="M37.47,20.35h0Z" fill="#fff"></path>
    <path d="M36.09,21.07s-.03.08-.04.12a.564.564,0,0,0,.04-.12h0Z" fill="#fff"></path>
    <path d="M36.18,56.82c-.09,1.61-.15,2.61-.16,2.77h0C36.02,59.44,36.09,58.44,36.18,56.82Z" fill="#fff"></path>
    <path d="M44.27,17.58a5.257,5.257,0,0,0-3.7,1.7A5.3,5.3,0,0,1,44.27,17.58Z" fill="#fff"></path>
    <path d="M39.85,20.37v-.01H38.3v.01Z" fill="#fff"></path>
    <path d="M38.38,19.14a1.087,1.087,0,0,1,.01-.18c.06-.01.16-.03.29-.06-.13.03-.23.05-.29.06A1.087,1.087,0,0,1,38.38,19.14Z" fill="#fff"></path>
    <path d="M36.67,18.28a2.818,2.818,0,0,0,.88.57h0A3.021,3.021,0,0,1,36.67,18.28Z" fill="#fff"></path>
    <path d="M39.98,18.38a4.827,4.827,0,0,0,2.57-4.47v0A4.862,4.862,0,0,1,39.98,18.38Z" fill="#fff"></path>
    <path d="M31.91,69.25a2.218,2.218,0,0,1-2.35,1.95c-1.87,0-2.57-1.42-2.57-3.32,0-1.68.81-3.23,2.62-3.23a2.1,2.1,0,0,1,2.28,1.96H31.1a1.422,1.422,0,0,0-1.51-1.29c-1.26,0-1.77,1.22-1.77,2.56s.41,2.65,1.78,2.65a1.486,1.486,0,0,0,1.54-1.28h.79Z" fill="#fff"></path>
    <path d="M36.82,68.68c0,1.35-.59,2.5-2.09,2.5s-2.03-1.19-2.03-2.47a2.108,2.108,0,0,1,2.09-2.38C36.11,66.33,36.82,67.34,36.82,68.68Zm-3.34.02c0,1.08.44,1.84,1.29,1.84s1.25-.75,1.25-1.85c0-1.02-.42-1.72-1.28-1.72s-1.26.71-1.26,1.73Z" fill="#fff"></path>
    <path d="M37.84,71.1V64.38h.76V71.1Z" fill="#fff"></path>
    <path d="M39.95,71.1V64.38h.76V71.1Z" fill="#fff"></path>
    <path d="M42.53,68.91c0,.94.39,1.64,1.22,1.64a1.067,1.067,0,0,0,1.07-.77h.75a1.788,1.788,0,0,1-1.86,1.41c-1.46,0-1.96-1.15-1.96-2.44,0-1.15.56-2.42,2-2.42s1.89,1.14,1.89,2.22v.36H42.53Zm2.36-.56c-.02-.8-.34-1.4-1.15-1.4-.93,0-1.15.84-1.19,1.4Z" fill="#fff"></path>
    <path d="M50.36,70.74c0,1.46-.58,2.28-2.01,2.28s-1.78-.73-1.85-1.4h.76c.1.52.52.77,1.12.77,1,0,1.23-.66,1.23-1.68v-.38a1.319,1.319,0,0,1-1.37.77c-1.1,0-1.81-.92-1.81-2.37s.84-2.41,1.92-2.41c.74,0,1.12.3,1.25.66a3.976,3.976,0,0,1,.04-.57h.75c0,.22-.02.72-.02,1.36v2.97Zm-3.14-2.01c0,1.09.46,1.71,1.2,1.71.89,0,1.21-.56,1.21-1.73S49.37,67,48.46,67c-.78,0-1.24.65-1.24,1.74Z" fill="#fff"></path>
    <path d="M52.16,68.91c0,.94.39,1.64,1.22,1.64a1.067,1.067,0,0,0,1.07-.77h.75a1.788,1.788,0,0,1-1.86,1.41c-1.46,0-1.96-1.15-1.96-2.44,0-1.15.56-2.42,2-2.42s1.89,1.14,1.89,2.22v.36H52.16Zm2.36-.56c-.02-.8-.34-1.4-1.15-1.4-.93,0-1.15.84-1.19,1.4Z" fill="#fff"></path>
    <path d="M62.36,68.68c0,1.35-.59,2.5-2.09,2.5s-2.03-1.19-2.03-2.47a2.108,2.108,0,0,1,2.09-2.38C61.65,66.33,62.36,67.34,62.36,68.68Zm-3.33.02c0,1.08.44,1.84,1.29,1.84s1.25-.75,1.25-1.85c0-1.02-.42-1.72-1.28-1.72s-1.26.71-1.26,1.73Z" fill="#fff"></path>
    <path d="M63.55,71.1V67.05h-.72v-.63h.72v-.58c0-.83.29-1.53,1.27-1.53a1.463,1.463,0,0,1,.44.06v.65a1.762,1.762,0,0,0-.38-.04c-.41,0-.57.28-.57.82v.62h.87v.63h-.87V71.1h-.76Z" fill="#fff"></path>
    <path d="M68.49,69.3a1.338,1.338,0,0,0,1.44,1.23c.76,0,1.27-.39,1.27-1.1s-.33-1-1.45-1.35c-1.33-.41-1.84-.85-1.84-1.76,0-1.01.76-1.67,1.95-1.67a1.8,1.8,0,0,1,2.02,1.71H71.1a1.135,1.135,0,0,0-1.26-1.06c-.75,0-1.12.37-1.12.95s.33.83,1.35,1.14c1.57.48,1.95,1.08,1.95,1.96,0,1.06-.73,1.83-2.12,1.83a1.921,1.921,0,0,1-2.19-1.87h.79Z" fill="#fff"></path>
    <path d="M76.65,69.61a1.8,1.8,0,0,1-1.88,1.58c-1.32,0-1.98-.87-1.98-2.44,0-1.35.68-2.42,2.03-2.42a1.714,1.714,0,0,1,1.83,1.63h-.77a1.046,1.046,0,0,0-1.07-1c-.85,0-1.22.74-1.22,1.78,0,1.2.43,1.83,1.21,1.83.65,0,.93-.4,1.09-.96h.77Z" fill="#fff"></path>
    <path d="M77.62,64.38h.76v.99h-.76Zm0,2.04h.76V71.1h-.76Z" fill="#fff"></path>
    <path d="M80.19,68.91c0,.94.39,1.64,1.22,1.64a1.067,1.067,0,0,0,1.07-.77h.75a1.788,1.788,0,0,1-1.86,1.41c-1.46,0-1.96-1.15-1.96-2.44,0-1.15.56-2.42,2-2.42s1.89,1.14,1.89,2.22v.36H80.19Zm2.37-.56c-.02-.8-.34-1.4-1.15-1.4-.93,0-1.15.84-1.19,1.4h2.34Z" fill="#fff"></path>
    <path d="M84.33,67.89c0-.98,0-1.26-.02-1.46h.75c.01.09.03.54.03.73a1.417,1.417,0,0,1,1.38-.83c.87,0,1.49.49,1.49,1.75V71.1h-.77V68.2c0-.68-.23-1.2-.93-1.2-.84,0-1.17.62-1.17,1.6v2.5h-.76Z" fill="#fff"></path>
    <path d="M92.84,69.61a1.8,1.8,0,0,1-1.88,1.58c-1.32,0-1.98-.87-1.98-2.44,0-1.35.68-2.42,2.03-2.42a1.714,1.714,0,0,1,1.83,1.63h-.77a1.046,1.046,0,0,0-1.07-1c-.85,0-1.22.74-1.22,1.78,0,1.2.43,1.83,1.21,1.83.65,0,.93-.4,1.09-.96h.77Z" fill="#fff"></path>
    <path d="M94.32,68.91c0,.94.39,1.64,1.22,1.64a1.067,1.067,0,0,0,1.07-.77h.75a1.788,1.788,0,0,1-1.86,1.41c-1.46,0-1.96-1.15-1.96-2.44,0-1.15.56-2.42,2-2.42s1.89,1.14,1.89,2.22v.36H94.32Zm2.36-.56c-.02-.8-.34-1.4-1.15-1.4-.93,0-1.15.84-1.19,1.4h2.34Z" fill="#fff"></path>
    <path d="M97.9,72.18a6.336,6.336,0,0,0,.58-2.37h.74a5,5,0,0,1-.69,2.37Z" fill="#fff"></path>
    <path d="M103.69,65.41h-1.86v-.68h4.53v.68h-1.87V71.1h-.8V65.41Z" fill="#fff"></path>
    <path d="M106.7,68.91c0,.94.39,1.64,1.22,1.64a1.067,1.067,0,0,0,1.07-.77h.75a1.788,1.788,0,0,1-1.86,1.41c-1.46,0-1.96-1.15-1.96-2.44,0-1.15.56-2.42,2-2.42s1.89,1.14,1.89,2.22v.36H106.7Zm2.36-.56c-.02-.8-.34-1.4-1.15-1.4-.93,0-1.15.84-1.19,1.4h2.34Z" fill="#fff"></path>
    <path d="M114.42,69.61a1.8,1.8,0,0,1-1.88,1.58c-1.32,0-1.98-.87-1.98-2.44,0-1.35.68-2.42,2.03-2.42a1.714,1.714,0,0,1,1.83,1.63h-.77a1.046,1.046,0,0,0-1.07-1c-.85,0-1.22.74-1.22,1.78,0,1.2.43,1.83,1.21,1.83.65,0,.93-.4,1.09-.96h.77Z" fill="#fff"></path>
    <path d="M116.13,64.38v2.71a1.455,1.455,0,0,1,1.39-.76c.7,0,1.47.36,1.47,1.68V71.1h-.76V68.14c0-.71-.28-1.14-.96-1.14-.75,0-1.14.5-1.14,1.43V71.1h-.76V64.38h.76Z" fill="#fff"></path>
    <path d="M120.34,67.89c0-.98,0-1.26-.02-1.46h.75c.01.09.03.54.03.73a1.417,1.417,0,0,1,1.38-.83c.87,0,1.49.49,1.49,1.75V71.1h-.77V68.2c0-.68-.23-1.2-.93-1.2-.84,0-1.17.62-1.17,1.6v2.5h-.76Z" fill="#fff"></path>
    <path d="M129.11,68.68c0,1.35-.59,2.5-2.09,2.5s-2.03-1.19-2.03-2.47a2.108,2.108,0,0,1,2.09-2.38C128.4,66.33,129.11,67.34,129.11,68.68Zm-3.33.02c0,1.08.44,1.84,1.29,1.84s1.25-.75,1.25-1.85c0-1.02-.42-1.72-1.28-1.72s-1.26.71-1.26,1.73Z" fill="#fff"></path>
    <path d="M130.14,71.1V64.38h.76V71.1Z" fill="#fff"></path>
    <path d="M136.05,68.68c0,1.35-.59,2.5-2.09,2.5s-2.03-1.19-2.03-2.47a2.108,2.108,0,0,1,2.09-2.38C135.34,66.33,136.05,67.34,136.05,68.68Zm-3.33.02c0,1.08.44,1.84,1.29,1.84s1.25-.75,1.25-1.85c0-1.02-.42-1.72-1.28-1.72S132.72,67.68,132.72,68.7Z" fill="#fff"></path>
    <path d="M140.73,70.74c0,1.46-.58,2.28-2.01,2.28s-1.78-.73-1.85-1.4h.76c.1.52.52.77,1.12.77,1,0,1.23-.66,1.23-1.68v-.38a1.319,1.319,0,0,1-1.37.77c-1.1,0-1.81-.92-1.81-2.37s.84-2.41,1.92-2.41c.74,0,1.12.3,1.25.66a3.978,3.978,0,0,1,.04-.57h.75c0,.22-.02.72-.02,1.36v2.97Zm-3.14-2.01c0,1.09.46,1.71,1.2,1.71.89,0,1.21-.56,1.21-1.73S139.74,67,138.83,67c-.78,0-1.24.65-1.24,1.74Z" fill="#fff"></path>
    <path d="M142.32,66.42c.73,2.27,1.1,3.4,1.22,3.96h0c.14-.51.56-1.94,1.2-3.96h.79l-1.64,4.89c-.48,1.42-.86,1.72-1.69,1.72a2.8,2.8,0,0,1-.4-.03v-.66a2.6,2.6,0,0,0,.4.03c.56,0,.74-.45.96-1.12l-1.67-4.82h.82Z" fill="#fff"></path>
    <path d="M152.18,70.06a8.106,8.106,0,0,0,.07,1.04h-.7a5.116,5.116,0,0,1-.07-.72,1.38,1.38,0,0,1-1.41.81,1.345,1.345,0,0,1-1.49-1.42c0-.7.45-1.49,2.13-1.49h.72v-.45c0-.44-.13-.9-.92-.9a.863.863,0,0,0-1,.83h-.75c.07-.78.52-1.42,1.77-1.42.98,0,1.65.39,1.65,1.46v2.27Zm-.73-1.23h-.74c-1.13,0-1.35.46-1.35.89a.788.788,0,0,0,.87.83c.92,0,1.22-.62,1.22-1.62v-.1Z" fill="#fff"></path>
    <path d="M153.53,67.89c0-.98,0-1.26-.02-1.46h.75c.01.09.03.54.03.73a1.417,1.417,0,0,1,1.38-.83c.87,0,1.49.49,1.49,1.75V71.1h-.77V68.2c0-.68-.23-1.2-.93-1.2-.84,0-1.17.62-1.17,1.6v2.5h-.76V67.89Z" fill="#fff"></path>
    <path d="M162.14,64.38v5.5c0,.45,0,.93.02,1.22h-.75c-.01-.12-.03-.42-.03-.69a1.3,1.3,0,0,1-1.39.78c-1.21,0-1.81-1.02-1.81-2.42s.7-2.44,1.97-2.44c.76,0,1.11.3,1.24.56V64.38h.76Zm-3.17,4.36c0,1.14.49,1.79,1.23,1.79,1.01,0,1.21-.76,1.21-1.86,0-1.3-.37-1.68-1.17-1.68s-1.28.63-1.28,1.75Z" fill="#fff"></path>
    <path d="M28.09,79.85l-.62,1.94h-.79c.45-1.33,1.57-4.86,2.07-6.37h1l2.16,6.37h-.85l-.64-1.94H28.08Zm2.14-.68c-.54-1.64-.88-2.59-1-3.1h-.02c-.18.75-.51,1.73-.95,3.1h1.97Z" fill="#fff"></path>
    <path d="M33.52,81.23v2.42h-.76V78.5c0-.64,0-1.09-.02-1.38h.75c.01.16.02.49.02.75a1.5,1.5,0,0,1,1.46-.85c1.02,0,1.75.81,1.75,2.36s-.84,2.49-1.94,2.49a1.316,1.316,0,0,1-1.27-.64Zm2.41-1.83c0-1.12-.45-1.72-1.2-1.72-.96,0-1.25.66-1.25,1.79,0,1.03.2,1.75,1.2,1.75.79,0,1.25-.65,1.25-1.81Z" fill="#fff"></path>
    <path d="M38.51,81.23v2.42h-.76V78.5c0-.64,0-1.09-.02-1.38h.75c.01.16.02.49.02.75a1.5,1.5,0,0,1,1.46-.85c1.02,0,1.75.81,1.75,2.36s-.84,2.49-1.94,2.49a1.316,1.316,0,0,1-1.27-.64Zm2.41-1.83c0-1.12-.45-1.72-1.2-1.72-.96,0-1.25.66-1.25,1.79,0,1.03.2,1.75,1.2,1.75.79,0,1.25-.65,1.25-1.81Z" fill="#fff"></path>
    <path d="M42.74,81.79V75.07h.76v6.72Z" fill="#fff"></path>
    <path d="M44.85,75.07h.76v.99h-.76Zm0,2.04h.76v4.68h-.76Z" fill="#fff"></path>
    <path d="M47.43,79.6c0,.94.39,1.64,1.22,1.64a1.067,1.067,0,0,0,1.07-.77h.75a1.788,1.788,0,0,1-1.86,1.41c-1.46,0-1.96-1.15-1.96-2.44,0-1.15.56-2.42,2-2.42s1.89,1.14,1.89,2.22v.36H47.43Zm2.36-.56c-.02-.8-.34-1.4-1.15-1.4-.93,0-1.15.84-1.19,1.4Z" fill="#fff"></path>
    <path d="M55.24,75.07v5.5c0,.45,0,.93.02,1.22h-.75c-.01-.12-.03-.42-.03-.69a1.3,1.3,0,0,1-1.39.78c-1.21,0-1.81-1.02-1.81-2.42s.7-2.44,1.97-2.44c.76,0,1.11.3,1.24.56V75.07h.76Zm-3.17,4.36c0,1.14.49,1.79,1.23,1.79,1.01,0,1.21-.76,1.21-1.86,0-1.3-.37-1.68-1.17-1.68s-1.28.63-1.28,1.75Z" fill="#fff"></path>
    <path d="M59.79,79.85l-.62,1.94h-.79c.45-1.33,1.57-4.86,2.07-6.37h1l2.16,6.37h-.85l-.64-1.94H59.78Zm2.15-.68c-.54-1.64-.88-2.59-1-3.1h-.02c-.18.75-.51,1.73-.95,3.1Z" fill="#fff"></path>
    <path d="M64.46,78.7c0-.75,0-1.36-.02-1.59h.75c.02.22.02.52.02.95a1.56,1.56,0,0,1,1.51-1.03v.8c-1.05.04-1.5.66-1.5,1.67v2.3h-.76V78.71Z" fill="#fff"></path>
    <path d="M67.2,77.11h.75V75.75h.76v1.36h.94v.63h-.94v2.93c0,.39.1.56.5.56a1.938,1.938,0,0,0,.36-.03v.57a1.9,1.9,0,0,1-.61.08c-.68,0-1.01-.26-1.01-1.04V77.74H67.2Z" fill="#fff"></path>
    <path d="M70.85,80.44a.977.977,0,0,0,1.05.84c.65,0,.9-.34.9-.74,0-.42-.3-.64-1.09-.86-1.14-.31-1.44-.73-1.44-1.35s.42-1.3,1.57-1.3,1.57.62,1.63,1.34h-.75a.822.822,0,0,0-.91-.75c-.53,0-.77.26-.77.64,0,.35.18.54.97.75,1.19.32,1.57.72,1.57,1.47,0,.87-.69,1.4-1.69,1.4a1.558,1.558,0,0,1-1.78-1.43h.76Z" fill="#fff"></path>
    <path d="M80.64,79.38c0,1.35-.59,2.5-2.09,2.5s-2.03-1.19-2.03-2.47a2.108,2.108,0,0,1,2.09-2.38C79.93,77.03,80.64,78.04,80.64,79.38Zm-3.33.01c0,1.08.44,1.84,1.29,1.84s1.25-.75,1.25-1.85c0-1.02-.42-1.72-1.28-1.72S77.31,78.37,77.31,79.39Z" fill="#fff"></path>
    <path d="M81.83,81.79V77.74h-.72v-.63h.72v-.58c0-.83.29-1.53,1.27-1.53a1.463,1.463,0,0,1,.44.06v.65a1.762,1.762,0,0,0-.38-.04c-.41,0-.57.28-.57.82v.62h.87v.63h-.87v4.05Z" fill="#fff"></path>
    <path d="M87.59,76.11H85.73v-.68h4.53v.68H88.39V81.8h-.8V76.11Z" fill="#fff"></path>
    <path d="M90.23,78.7c0-.75,0-1.36-.02-1.59h.75c.02.22.02.52.02.95a1.56,1.56,0,0,1,1.51-1.03v.8c-1.05.04-1.5.66-1.5,1.67v2.3h-.76V78.71Z" fill="#fff"></path>
    <path d="M93.28,75.07h.76v.99h-.76Zm0,2.04h.76v4.68h-.76Z" fill="#fff"></path>
    <path d="M95.4,78.58c0-.98,0-1.26-.02-1.46h.75c.01.09.03.54.03.73a1.417,1.417,0,0,1,1.38-.83c.87,0,1.49.49,1.49,1.75v3.02h-.77v-2.9c0-.68-.23-1.2-.93-1.2-.84,0-1.17.62-1.17,1.6v2.5H95.4Z" fill="#fff"></path>
    <path d="M100.37,75.07h.76v.99h-.76Zm0,2.04h.76v4.68h-.76Z" fill="#fff"></path>
    <path d="M106.12,75.07v5.5c0,.45,0,.93.02,1.22h-.75c-.01-.12-.03-.42-.03-.69a1.3,1.3,0,0,1-1.39.78c-1.21,0-1.81-1.02-1.81-2.42s.7-2.44,1.97-2.44c.76,0,1.11.3,1.24.56V75.07h.76Zm-3.18,4.36c0,1.14.49,1.79,1.23,1.79,1.01,0,1.21-.76,1.21-1.86,0-1.3-.37-1.68-1.17-1.68s-1.28.63-1.28,1.75Z" fill="#fff"></path>
    <path d="M110.74,80.75a8.108,8.108,0,0,0,.07,1.04h-.7a5.115,5.115,0,0,1-.07-.72,1.38,1.38,0,0,1-1.41.81,1.345,1.345,0,0,1-1.49-1.42c0-.7.45-1.49,2.13-1.49h.72v-.45c0-.44-.13-.9-.92-.9a.863.863,0,0,0-1,.83h-.75c.07-.78.52-1.42,1.77-1.42.98,0,1.65.39,1.65,1.46v2.27Zm-.73-1.22h-.74c-1.13,0-1.35.46-1.35.89a.788.788,0,0,0,.87.83c.92,0,1.22-.62,1.22-1.62v-.1Z" fill="#fff"></path>
    <path d="M115.73,75.07v5.5c0,.45,0,.93.02,1.22H115c-.01-.12-.03-.42-.03-.69a1.3,1.3,0,0,1-1.39.78c-1.21,0-1.81-1.02-1.81-2.42s.7-2.44,1.97-2.44c.76,0,1.11.3,1.24.56V75.07h.76Zm-3.17,4.36c0,1.14.49,1.79,1.23,1.79,1.01,0,1.21-.76,1.21-1.86,0-1.3-.37-1.68-1.17-1.68s-1.28.63-1.28,1.75Z" fill="#fff"></path>
    <path d="M122.7,80.75a8.108,8.108,0,0,0,.07,1.04h-.7a5.115,5.115,0,0,1-.07-.72,1.38,1.38,0,0,1-1.41.81,1.345,1.345,0,0,1-1.49-1.42c0-.7.45-1.49,2.13-1.49h.72v-.45c0-.44-.13-.9-.92-.9a.863.863,0,0,0-1,.83h-.75c.07-.78.52-1.42,1.77-1.42.98,0,1.65.39,1.65,1.46v2.27Zm-.73-1.22h-.74c-1.13,0-1.35.46-1.35.89a.788.788,0,0,0,.87.83c.92,0,1.22-.62,1.22-1.62v-.1Z" fill="#fff"></path>
    <path d="M124.05,78.58c0-.98,0-1.26-.02-1.46h.75c.01.09.03.54.03.73a1.417,1.417,0,0,1,1.38-.83c.87,0,1.49.49,1.49,1.75v3.02h-.77v-2.9c0-.68-.23-1.2-.93-1.2-.84,0-1.17.62-1.17,1.6v2.5h-.76Z" fill="#fff"></path>
    <path d="M132.66,75.07v5.5c0,.45,0,.93.02,1.22h-.75c-.01-.12-.03-.42-.03-.69a1.3,1.3,0,0,1-1.39.78c-1.21,0-1.81-1.02-1.81-2.42s.7-2.44,1.97-2.44c.76,0,1.11.3,1.24.56V75.07h.76Zm-3.18,4.36c0,1.14.49,1.79,1.23,1.79,1.01,0,1.21-.76,1.21-1.86,0-1.3-.37-1.68-1.17-1.68s-1.28.63-1.28,1.75Z" fill="#fff"></path>
    <path d="M137.61,76.11h-1.86v-.68h4.53v.68h-1.87V81.8h-.8Z" fill="#fff"></path>
    <path d="M143.96,79.38c0,1.35-.59,2.5-2.09,2.5s-2.03-1.19-2.03-2.47a2.108,2.108,0,0,1,2.09-2.38C143.25,77.03,143.96,78.04,143.96,79.38Zm-3.33.01c0,1.08.44,1.84,1.29,1.84s1.25-.75,1.25-1.85c0-1.02-.42-1.72-1.28-1.72S140.63,78.37,140.63,79.39Z" fill="#fff"></path>
    <path d="M144.98,75.07h.76v2.69a1.473,1.473,0,0,1,1.4-.74c1.14,0,1.79.93,1.79,2.29,0,1.42-.6,2.57-1.94,2.57a1.275,1.275,0,0,1-1.27-.68,5.826,5.826,0,0,1-.03.59h-.74c0-.26.02-.75.02-1.32V75.08Zm3.17,4.27c0-.99-.39-1.65-1.2-1.65-.92,0-1.26.6-1.26,1.71s.26,1.82,1.23,1.82c.84,0,1.22-.78,1.22-1.88Z" fill="#fff"></path>
    <path d="M153.23,80.75a8.106,8.106,0,0,0,.07,1.04h-.7a5.116,5.116,0,0,1-.07-.72,1.38,1.38,0,0,1-1.41.81,1.345,1.345,0,0,1-1.49-1.42c0-.7.45-1.49,2.13-1.49h.72v-.45c0-.44-.13-.9-.92-.9a.863.863,0,0,0-1,.83h-.75c.07-.78.52-1.42,1.77-1.42.98,0,1.65.39,1.65,1.46v2.27Zm-.73-1.22h-.74c-1.13,0-1.35.46-1.35.89a.788.788,0,0,0,.87.83c.92,0,1.22-.62,1.22-1.62v-.1Z" fill="#fff"></path>
    <path d="M158.19,81.44c0,1.46-.58,2.28-2.01,2.28s-1.78-.73-1.85-1.4h.76c.1.52.52.77,1.12.77,1,0,1.23-.66,1.23-1.68v-.38a1.319,1.319,0,0,1-1.37.77c-1.1,0-1.81-.92-1.81-2.37s.84-2.41,1.92-2.41c.74,0,1.12.3,1.25.66a3.978,3.978,0,0,1,.04-.57h.75c0,.22-.02.72-.02,1.36v2.97Zm-3.13-2.02c0,1.09.46,1.71,1.2,1.71.89,0,1.21-.56,1.21-1.73s-.26-1.71-1.17-1.71c-.78,0-1.24.65-1.24,1.74Z" fill="#fff"></path>
    <path d="M163.33,79.38c0,1.35-.59,2.5-2.09,2.5s-2.03-1.19-2.03-2.47a2.108,2.108,0,0,1,2.09-2.38C162.62,77.03,163.33,78.04,163.33,79.38Zm-3.33.01c0,1.08.44,1.84,1.29,1.84s1.25-.75,1.25-1.85c0-1.02-.42-1.72-1.28-1.72S160,78.37,160,79.39Z" fill="#fff"></path>
  </g>
</svg>
